<?xml version="1.0" standalone="no"?>
<!DOCTYPE svg PUBLIC "-//W3C//DTD SVG 20010904//EN"
 "http://www.w3.org/TR/2001/REC-SVG-20010904/DTD/svg10.dtd">
<svg version="1.0" xmlns="http://www.w3.org/2000/svg"
 width="999.000000pt" height="999.000000pt" viewBox="0 0 999.000000 999.000000"
 preserveAspectRatio="xMidYMid meet">
<metadata>
Created by potrace 1.14, written by Peter Selinger 2001-2017
</metadata>
<g transform="translate(0.000000,999.000000) scale(0.100000,-0.100000)"
fill="#000000" stroke="none">
<path d="M2589 6170 c0 -3 0 -51 1 -107 l2 -103 -111 0 -110 0 2 -52 2 -53
-53 -1 c-29 -1 -56 -4 -59 -7 -3 -4 -14 -2 -25 4 -11 6 -29 12 -41 15 -12 2
-33 7 -47 10 -51 12 -246 11 -310 -2 -78 -16 -173 -62 -218 -105 -18 -17 -46
-54 -63 -83 -21 -39 -42 -60 -77 -79 -27 -15 -64 -43 -83 -63 -19 -20 -60 -62
-91 -95 -52 -54 -95 -125 -102 -173 -7 -49 -103 -34 -171 26 -54 48 -80 94
-93 167 l-10 53 37 -7 c74 -13 74 -14 103 47 25 50 31 56 53 52 23 -4 29 3 65
77 22 45 39 83 37 85 -1 1 -29 19 -62 38 -32 20 -52 36 -44 37 81 5 108 3 179
-16 60 -16 63 -14 103 68 44 92 44 93 -46 135 -80 38 -111 49 -172 63 -27 6
-59 13 -70 15 -37 9 -229 5 -262 -5 -18 -5 -33 -8 -33 -6 0 7 -104 -32 -149
-55 -60 -32 -153 -120 -176 -168 -11 -23 -31 -44 -48 -52 -41 -18 -229 -205
-267 -265 -50 -82 -72 -165 -76 -295 -7 -240 58 -388 218 -498 44 -30 178 -88
178 -77 0 2 12 0 27 -6 16 -6 87 -11 158 -11 151 1 243 20 352 75 78 40 96 56
83 77 -7 11 5 22 48 46 l57 31 11 -26 c35 -79 143 -156 265 -187 63 -16 263
-23 305 -11 10 4 35 9 54 12 59 9 157 63 202 111 24 25 65 66 92 92 26 26 58
67 71 93 13 25 35 50 49 57 l26 12 1 -58 c0 -31 2 -86 4 -122 2 -36 4 -92 4
-125 l1 -60 183 0 182 0 3 53 c2 28 6 52 10 53 4 1 27 2 52 3 40 2 45 4 46 26
1 14 3 62 5 108 3 71 6 82 21 82 10 0 18 -7 18 -17 0 -22 25 -95 45 -134 22
-42 85 -100 141 -131 157 -85 464 -81 607 9 58 36 221 207 242 253 9 21 28 43
41 49 23 10 24 9 25 -22 1 -38 7 -144 13 -207 2 -25 4 -63 5 -85 l1 -40 176 0
c168 0 177 1 184 20 4 11 6 33 5 48 -2 33 16 45 62 41 18 -1 35 1 37 5 3 4 8
49 11 101 3 51 8 97 11 102 3 4 45 7 95 6 49 -1 92 2 96 5 3 4 7 31 9 60 1 28
5 86 9 127 10 104 13 133 14 148 1 10 8 9 35 -2 35 -14 49 -11 59 14 3 10 6 6
7 -10 1 -14 3 -36 5 -50 1 -14 6 -63 9 -110 4 -47 9 -107 11 -135 7 -67 13
-144 20 -240 3 -44 8 -91 11 -105 l5 -26 362 2 c199 1 378 4 397 8 90 18 125
28 163 47 45 22 117 86 117 104 1 5 20 24 44 42 24 17 51 49 61 70 15 30 20
34 22 18 24 -144 77 -226 178 -276 56 -27 73 -31 149 -31 129 0 194 21 260 83
29 27 53 39 43 22 -3 -5 -2 -26 2 -48 l6 -40 168 0 c161 -1 167 0 169 20 0 11
2 29 3 40 1 11 3 28 4 37 1 14 8 16 46 11 55 -6 56 -6 58 121 l2 96 30 -3 c26
-3 30 -7 32 -38 1 -19 4 -74 8 -124 4 -49 7 -106 8 -125 l2 -35 170 -1 c94 0
175 1 181 3 6 2 12 25 12 50 1 53 11 62 58 57 47 -4 50 3 55 136 1 30 6 61 12
68 6 8 40 12 103 12 82 0 93 2 92 18 -2 40 22 314 29 324 2 5 17 1 32 -7 44
-22 57 -4 71 105 15 113 17 127 24 139 9 14 96 -11 124 -34 6 -5 -28 -65 -36
-65 -18 0 -76 -68 -94 -110 -47 -109 -11 -223 95 -304 l34 -26 -28 -57 c-24
-48 -33 -57 -56 -59 -15 0 -29 -5 -30 -10 -2 -5 -19 -40 -37 -79 -19 -38 -32
-73 -29 -77 8 -14 177 -87 201 -87 4 0 27 -4 52 -7 134 -21 334 3 409 48 82
49 251 240 251 285 0 7 64 37 95 45 6 2 11 -15 11 -37 6 -171 60 -273 172
-325 85 -40 261 -25 351 30 27 17 32 26 28 46 -4 22 1 28 37 44 78 34 79 37
62 110 -8 36 -14 65 -13 66 1 1 25 4 52 7 72 8 185 54 185 75 0 4 -7 45 -17
91 l-16 83 -48 -6 c-47 -6 -49 -5 -65 25 -14 27 -15 52 -9 178 4 80 8 152 8
159 0 14 -4 13 67 17 30 1 59 3 63 4 4 0 5 20 3 44 -3 23 -8 74 -11 112 -4 39
-9 72 -11 74 -3 3 -25 4 -49 4 -35 -1 -45 2 -46 15 -2 22 1 123 6 190 4 64 4
64 -111 38 -12 -2 -38 -7 -58 -10 -19 -3 -57 -11 -83 -17 -58 -13 -62 -14
-140 -29 -70 -14 -66 -7 -63 -121 l1 -66 -51 0 c-29 0 -55 -5 -59 -11 -3 -6
-26 -13 -51 -17 -24 -4 -49 -9 -53 -12 -5 -3 -12 -1 -16 5 -8 13 -94 37 -173
48 -67 10 -249 11 -306 1 -118 -19 -222 -97 -244 -184 -6 -24 -16 -43 -22 -43
-7 0 -29 -9 -51 -20 -41 -21 -59 -25 -52 -12 3 4 8 34 12 67 3 32 8 62 10 65
2 4 6 29 9 57 5 47 3 51 -22 63 -15 7 -59 14 -97 15 -85 4 -149 -16 -200 -62
-41 -37 -51 -36 -60 7 -4 17 -12 30 -18 31 -16 1 -336 1 -364 0 -21 -1 -21 -4
-16 -106 l5 -105 -61 0 -61 0 5 105 c4 79 2 105 -8 106 -58 4 -411 3 -418 -2
-5 -3 -8 -50 -6 -105 l2 -99 -82 -3 -83 -3 1 101 c0 56 -2 104 -5 107 -3 3
-89 6 -191 7 -207 1 -193 7 -201 -79 -3 -27 -7 -59 -9 -70 -2 -11 -4 -30 -4
-42 -1 -21 -6 -22 -93 -25 l-93 -3 -9 -50 c-5 -27 -10 -52 -12 -54 -2 -2 -29
9 -60 24 l-57 28 52 24 c107 51 158 135 149 246 -10 126 -69 189 -209 221 -49
12 -148 14 -497 13 l-437 -2 2 -30 c0 -16 4 -63 8 -102 6 -66 5 -73 -12 -74
-10 0 -72 -2 -138 -3 -133 -2 -167 -12 -229 -66 -20 -18 -38 -31 -40 -29 -1 2
-8 19 -15 37 -8 17 -19 32 -25 33 -6 1 -89 2 -185 2 -134 2 -178 -1 -188 -11
-7 -8 -11 -18 -8 -23 3 -5 8 -47 11 -94 l5 -85 -70 0 -71 0 -19 38 c-47 89
-153 160 -280 188 -46 10 -247 13 -287 4 -22 -5 -50 -11 -64 -13 -95 -18 -218
-111 -255 -195 -11 -23 -28 -45 -39 -48 -12 -3 -44 -24 -73 -45 l-52 -39 4
103 c3 56 7 165 10 242 3 77 7 173 9 213 2 39 1 73 -3 73 -22 4 -451 3 -452
-1z m3071 -276 c0 -2 -9 -4 -21 -4 -11 0 -18 4 -14 10 5 8 35 3 35 -6z m3375
-121 c0 -20 -6 -38 -12 -40 -15 -5 -16 2 -7 46 9 42 19 39 19 -6z m-7005 -95
c17 -18 27 -48 17 -48 -2 0 -25 7 -52 17 l-48 16 22 19 c30 23 36 23 61 -4z
m1635 -3 c29 -28 33 -50 8 -40 -10 3 -30 9 -46 12 -36 7 -43 21 -21 38 26 20
31 19 59 -10z m5228 -15 c35 -10 37 -14 37 -50 0 -60 -7 -70 -51 -70 -54 0
-76 16 -71 50 3 24 -1 30 -32 41 -34 12 -35 14 -19 32 19 20 59 19 136 -3z
m-5509 -628 c2 -4 1 -14 -3 -21 -6 -9 -10 -7 -14 8 -5 20 7 29 17 13z m2036
-29 c0 -9 -13 -13 -40 -13 -37 0 -49 8 -34 23 12 12 74 4 74 -10z"/>
<path d="M309 4412 l-55 -3 -1 -257 c0 -179 3 -259 11 -264 6 -4 2143 -7 4749
-8 l4737 0 1 23 c4 104 3 491 -2 499 -5 7 -1478 11 -4695 12 -2579 0 -4714 0
-4745 -2z"/>
</g>
</svg>
